<?xml version="1.0" standalone="yes"?>

<svg width="100" height="100" viewBox="0 0 20 20" version="1.1"
   xmlns="http://www.w3.org/2000/svg">
<desc>labyrinth of size 15x15</desc>
  <rect x="0" y="0" width="20" height="20"
      fill="white" />
  <g stroke="black"  stroke-width="0.1"> 
    <line x1="5" y1="14" x2="5" y2="5"/>
    <line x1="5" y1="5" x2="15" y2="5"/>
    <line x1="15" y1="6" x2="15" y2="15"/>
    <line x1="15" y1="15" x2="5" y2="15"/>
    <line x1="6" y1="10" x2="6" y2="11"/>
    <line x1="12" y1="5" x2="12" y2="6"/>
    <line x1="6" y1="6" x2="6" y2="7"/>
    <line x1="10" y1="6" x2="11" y2="6"/>
    <line x1="9" y1="7" x2="10" y2="7"/>
    <line x1="13" y1="10" x2="13" y2="11"/>
    <line x1="12" y1="7" x2="12" y2="8"/>
    <line x1="13" y1="14" x2="14" y2="14"/>
    <line x1="12" y1="9" x2="12" y2="10"/>
    <line x1="9" y1="8" x2="9" y2="9"/>
    <line x1="6" y1="8" x2="7" y2="8"/>
    <line x1="7" y1="13" x2="7" y2="14"/>
    <line x1="9" y1="5" x2="9" y2="6"/>
    <line x1="9" y1="10" x2="9" y2="11"/>
    <line x1="7" y1="6" x2="8" y2="6"/>
    <line x1="6" y1="9" x2="6" y2="10"/>
    <line x1="9" y1="12" x2="9" y2="13"/>
    <line x1="7" y1="14" x2="8" y2="14"/>
    <line x1="13" y1="6" x2="13" y2="7"/>
    <line x1="8" y1="6" x2="9" y2="6"/>
    <line x1="12" y1="13" x2="13" y2="13"/>
    <line x1="8" y1="10" x2="9" y2="10"/>
    <line x1="10" y1="11" x2="11" y2="11"/>
    <line x1="14" y1="9" x2="15" y2="9"/>
    <line x1="5" y1="8" x2="6" y2="8"/>
    <line x1="10" y1="12" x2="10" y2="13"/>
    <line x1="13" y1="8" x2="13" y2="9"/>
    <line x1="10" y1="10" x2="10" y2="11"/>
    <line x1="13" y1="11" x2="13" y2="12"/>
    <line x1="7" y1="8" x2="7" y2="9"/>
    <line x1="14" y1="7" x2="14" y2="8"/>
    <line x1="14" y1="5" x2="14" y2="6"/>
    <line x1="5" y1="9" x2="6" y2="9"/>
    <line x1="14" y1="14" x2="14" y2="15"/>
    <line x1="13" y1="12" x2="14" y2="12"/>
    <line x1="12" y1="10" x2="13" y2="10"/>
    <line x1="11" y1="14" x2="12" y2="14"/>
    <line x1="9" y1="11" x2="9" y2="12"/>
    <line x1="12" y1="12" x2="13" y2="12"/>
    <line x1="9" y1="10" x2="10" y2="10"/>
    <line x1="6" y1="13" x2="6" y2="14"/>
    <line x1="11" y1="6" x2="12" y2="6"/>
    <line x1="12" y1="8" x2="12" y2="9"/>
    <line x1="12" y1="13" x2="12" y2="14"/>
    <line x1="8" y1="11" x2="9" y2="11"/>
    <line x1="12" y1="11" x2="13" y2="11"/>
    <line x1="10" y1="13" x2="10" y2="14"/>
    <line x1="9" y1="14" x2="10" y2="14"/>
    <line x1="11" y1="7" x2="11" y2="8"/>
    <line x1="14" y1="11" x2="14" y2="12"/>
    <line x1="13" y1="12" x2="13" y2="13"/>
    <line x1="9" y1="9" x2="10" y2="9"/>
    <line x1="10" y1="8" x2="10" y2="9"/>
    <line x1="13" y1="8" x2="14" y2="8"/>
    <line x1="8" y1="13" x2="8" y2="14"/>
    <line x1="14" y1="9" x2="14" y2="10"/>
    <line x1="6" y1="14" x2="6" y2="15"/>
    <line x1="6" y1="12" x2="6" y2="13"/>
    <line x1="9" y1="6" x2="9" y2="7"/>
    <line x1="14" y1="11" x2="15" y2="11"/>
    <line x1="10" y1="9" x2="11" y2="9"/>
    <line x1="13" y1="5" x2="13" y2="6"/>
    <line x1="7" y1="8" x2="8" y2="8"/>
    <line x1="8" y1="7" x2="8" y2="8"/>
    <line x1="7" y1="12" x2="8" y2="12"/>
    <line x1="6" y1="12" x2="7" y2="12"/>
    <line x1="7" y1="14" x2="7" y2="15"/>
    <line x1="5" y1="6" x2="6" y2="6"/>
    <line x1="14" y1="13" x2="15" y2="13"/>
    <line x1="9" y1="9" x2="9" y2="10"/>
    <line x1="7" y1="11" x2="8" y2="11"/>
    <line x1="11" y1="12" x2="11" y2="13"/>
    <line x1="11" y1="11" x2="11" y2="12"/>
    <line x1="7" y1="7" x2="8" y2="7"/>
    <line x1="9" y1="12" x2="10" y2="12"/>
    <line x1="11" y1="6" x2="11" y2="7"/>
    <line x1="11" y1="10" x2="12" y2="10"/>
    <line x1="7" y1="10" x2="8" y2="10"/>
    <line x1="8" y1="13" x2="9" y2="13"/>
    <line x1="14" y1="6" x2="14" y2="7"/>
    <line x1="7" y1="9" x2="8" y2="9"/>
</g>
</svg>
