<?xml version="1.0" standalone="yes"?>

<svg width="100" height="100" viewBox="0 0 20 20" version="1.1"
   xmlns="http://www.w3.org/2000/svg">
<desc>labyrinth of size 15x15</desc>
  <rect x="0" y="0" width="20" height="20"
      fill="white" />
  <g stroke="black"  stroke-width="0.1"> 
    <line x1="6.46447" y1="13.5355" x2="7.06107" y2="14.0451"/>
    <line x1="6.46447" y1="6.46447" x2="7.06107" y2="5.95492"/>
    <line x1="7.06107" y1="14.0451" x2="7.73005" y2="14.455"/>
    <line x1="7.06107" y1="5.95492" x2="7.73005" y2="5.54497"/>
    <line x1="7.73005" y1="14.455" x2="8.45492" y2="14.7553"/>
    <line x1="7.73005" y1="5.54497" x2="8.45492" y2="5.24472"/>
    <line x1="8.45492" y1="14.7553" x2="9.21783" y2="14.9384"/>
    <line x1="8.45492" y1="5.24472" x2="9.21783" y2="5.06156"/>
    <line x1="9.21783" y1="14.9384" x2="10" y2="15"/>
    <line x1="9.21783" y1="5.06156" x2="10" y2="5"/>
    <line x1="10" y1="15" x2="10.7822" y2="14.9384"/>
    <line x1="10" y1="5" x2="10.7822" y2="5.06156"/>
    <line x1="10.7822" y1="14.9384" x2="11.5451" y2="14.7553"/>
    <line x1="10.7822" y1="5.06156" x2="11.5451" y2="5.24472"/>
    <line x1="11.5451" y1="14.7553" x2="12.27" y2="14.455"/>
    <line x1="11.5451" y1="5.24472" x2="12.27" y2="5.54497"/>
    <line x1="12.27" y1="14.455" x2="12.9389" y2="14.0451"/>
    <line x1="12.27" y1="5.54497" x2="12.9389" y2="5.95492"/>
    <line x1="12.9389" y1="14.0451" x2="13.5355" y2="13.5355"/>
    <line x1="12.9389" y1="5.95492" x2="13.5355" y2="6.46447"/>
    <line x1="6.46447" y1="6.46447" x2="5.95492" y2="7.06107"/>
    <line x1="5.95492" y1="7.06107" x2="5.54497" y2="7.73005"/>
    <line x1="14.0451" y1="7.06107" x2="14.455" y2="7.73005"/>
    <line x1="5.54497" y1="7.73005" x2="5.24472" y2="8.45492"/>
    <line x1="14.455" y1="7.73005" x2="14.7553" y2="8.45492"/>
    <line x1="5.24472" y1="8.45492" x2="5.06156" y2="9.21783"/>
    <line x1="14.7553" y1="8.45492" x2="14.9384" y2="9.21783"/>
    <line x1="5.06156" y1="9.21783" x2="5" y2="10"/>
    <line x1="14.9384" y1="9.21783" x2="15" y2="10"/>
    <line x1="5" y1="10" x2="5.06156" y2="10.7822"/>
    <line x1="15" y1="10" x2="14.9384" y2="10.7822"/>
    <line x1="5.06156" y1="10.7822" x2="5.24472" y2="11.5451"/>
    <line x1="14.9384" y1="10.7822" x2="14.7553" y2="11.5451"/>
    <line x1="5.24472" y1="11.5451" x2="5.54497" y2="12.27"/>
    <line x1="14.7553" y1="11.5451" x2="14.455" y2="12.27"/>
    <line x1="5.54497" y1="12.27" x2="5.95492" y2="12.9389"/>
    <line x1="14.455" y1="12.27" x2="14.0451" y2="12.9389"/>
    <line x1="14.0451" y1="12.9389" x2="13.5355" y2="13.5355"/>
    <line x1="9.29289" y1="9.29289" x2="10" y2="9"/>
    <line x1="10" y1="6" x2="10" y2="7"/>
    <line x1="13.9231" y1="10.7804" x2="13.6955" y2="11.5307"/>
    <line x1="8" y1="10" x2="8.15224" y2="10.7654"/>
    <line x1="7.40192" y1="11.5" x2="7.87868" y2="12.1213"/>
    <line x1="8.15224" y1="9.23463" x2="8" y2="10"/>
    <line x1="9.21964" y1="6.07686" x2="10" y2="6"/>
    <line x1="6.07686" y1="10.7804" x2="7.10222" y2="10.7765"/>
    <line x1="7.10222" y1="10.7765" x2="8.15224" y2="10.7654"/>
    <line x1="7.77772" y1="6.67412" x2="8.46927" y2="6.30448"/>
    <line x1="6.67412" y1="12.2223" x2="7.87868" y2="12.1213"/>
    <line x1="10.7765" y1="7.10222" x2="10.7654" y2="8.15224"/>
    <line x1="14" y1="10" x2="13.9231" y2="10.7804"/>
    <line x1="10" y1="12" x2="10.7654" y2="11.8478"/>
    <line x1="10.7654" y1="11.8478" x2="11.4142" y2="11.4142"/>
    <line x1="12.1213" y1="12.1213" x2="13.3259" y2="12.2223"/>
    <line x1="6.30448" y1="8.46927" x2="7.40192" y2="8.5"/>
    <line x1="7.77772" y1="13.3259" x2="8.46927" y2="13.6955"/>
    <line x1="7.87868" y1="12.1213" x2="8.5" y2="12.5981"/>
    <line x1="8.58579" y1="8.58579" x2="9.23463" y2="8.15224"/>
    <line x1="10" y1="13" x2="10" y2="14"/>
    <line x1="7.40192" y1="8.5" x2="7.10222" y2="9.22354"/>
    <line x1="11.5" y1="12.5981" x2="12.1213" y2="12.1213"/>
    <line x1="7.06107" y1="5.95492" x2="7.17157" y2="7.17157"/>
    <line x1="10.7654" y1="11.8478" x2="10.7765" y2="12.8978"/>
    <line x1="9.21783" y1="5.06156" x2="9.21964" y2="6.07686"/>
    <line x1="8.45492" y1="5.24472" x2="8.46927" y2="6.30448"/>
    <line x1="9.22354" y1="12.8978" x2="10" y2="13"/>
    <line x1="12.8978" y1="10.7765" x2="12.5981" y2="11.5"/>
    <line x1="7.17157" y1="12.8284" x2="7.77772" y2="13.3259"/>
    <line x1="5.95492" y1="12.9389" x2="7.17157" y2="12.8284"/>
    <line x1="14" y1="10" x2="15" y2="10"/>
    <line x1="9.29289" y1="10.7071" x2="9.23463" y2="11.8478"/>
    <line x1="9.22354" y1="7.10222" x2="9.23463" y2="8.15224"/>
    <line x1="12.8978" y1="9.22354" x2="13.9231" y2="9.21964"/>
    <line x1="13" y1="10" x2="14" y2="10"/>
    <line x1="12.2223" y1="6.67412" x2="12.8284" y2="7.17157"/>
    <line x1="6" y1="10" x2="7" y2="10"/>
    <line x1="6.30448" y1="11.5307" x2="6.67412" y2="12.2223"/>
    <line x1="11.8478" y1="9.23463" x2="12.8978" y2="9.22354"/>
    <line x1="11.5451" y1="5.24472" x2="11.5307" y2="6.30448"/>
    <line x1="10.7654" y1="8.15224" x2="10.7071" y2="9.29289"/>
    <line x1="7.87868" y1="12.1213" x2="7.77772" y2="13.3259"/>
    <line x1="6.67412" y1="7.77772" x2="7.87868" y2="7.87868"/>
    <line x1="13.3259" y1="12.2223" x2="12.8284" y2="12.8284"/>
    <line x1="10" y1="8" x2="10.7654" y2="8.15224"/>
    <line x1="8.58579" y1="11.4142" x2="8.5" y2="12.5981"/>
    <line x1="9.29289" y1="10.7071" x2="10" y2="11"/>
    <line x1="10.7654" y1="8.15224" x2="11.4142" y2="8.58579"/>
    <line x1="6.07686" y1="9.21964" x2="6" y2="10"/>
    <line x1="11.5" y1="7.40192" x2="12.1213" y2="7.87868"/>
    <line x1="8.5" y1="7.40192" x2="8.58579" y2="8.58579"/>
    <line x1="11.5307" y1="6.30448" x2="11.5" y2="7.40192"/>
    <line x1="8.5" y1="12.5981" x2="9.22354" y2="12.8978"/>
    <line x1="10" y1="9" x2="10.7071" y2="9.29289"/>
    <line x1="11" y1="10" x2="12" y2="10"/>
    <line x1="5.06156" y1="9.21783" x2="6.07686" y2="9.21964"/>
    <line x1="11.4142" y1="8.58579" x2="12.5981" y2="8.5"/>
    <line x1="10.7804" y1="13.9231" x2="11.5307" y2="13.6955"/>
    <line x1="11.8478" y1="10.7654" x2="12.8978" y2="10.7765"/>
    <line x1="7.87868" y1="7.87868" x2="8.5" y2="7.40192"/>
    <line x1="8.46927" y1="6.30448" x2="8.5" y2="7.40192"/>
    <line x1="10" y1="10" x2="11" y2="10"/>
    <line x1="10.7071" y1="10.7071" x2="11.8478" y2="10.7654"/>
    <line x1="12.2223" y1="13.3259" x2="12.27" y2="14.455"/>
    <line x1="12" y1="10" x2="11.8478" y2="10.7654"/>
    <line x1="6.07686" y1="9.21964" x2="7.10222" y2="9.22354"/>
    <line x1="9" y1="10" x2="9.29289" y2="10.7071"/>
    <line x1="12.5981" y1="8.5" x2="12.8978" y2="9.22354"/>
    <line x1="9.21964" y1="13.9231" x2="10" y2="14"/>
    <line x1="10.7822" y1="5.06156" x2="10.7804" y2="6.07686"/>
    <line x1="11.5307" y1="13.6955" x2="12.2223" y2="13.3259"/>
    <line x1="12.2223" y1="13.3259" x2="12.8284" y2="12.8284"/>
    <line x1="12.9389" y1="5.95492" x2="12.8284" y2="7.17157"/>
    <line x1="9.23463" y1="8.15224" x2="10" y2="8"/>
    <line x1="10.7071" y1="9.29289" x2="11" y2="10"/>
    <line x1="9" y1="10" x2="10" y2="10"/>
    <line x1="11.4142" y1="11.4142" x2="11.5" y2="12.5981"/>
    <line x1="13.3259" y1="7.77772" x2="13.6955" y2="8.46927"/>
    <line x1="7" y1="10" x2="7.10222" y2="10.7765"/>
    <line x1="13.3259" y1="7.77772" x2="14.455" y2="7.73005"/>
</g>
</svg>
